<?xml version="1.0" encoding="UTF-8" standalone="no"?>
<!-- Created with Inkscape (http://www.inkscape.org/) -->

<svg
   width="256mm"
   height="256mm"
   viewBox="0 0 256 256"
   version="1.1"
   id="svg1"
   inkscape:version="1.3 (0e150ed, 2023-07-21)"
   sodipodi:docname="egg_coin.svg"
   xmlns:inkscape="http://www.inkscape.org/namespaces/inkscape"
   xmlns:sodipodi="http://sodipodi.sourceforge.net/DTD/sodipodi-0.dtd"
   xmlns="http://www.w3.org/2000/svg"
   xmlns:svg="http://www.w3.org/2000/svg">
  <sodipodi:namedview
     id="namedview1"
     pagecolor="#ffffff"
     bordercolor="#000000"
     borderopacity="0.25"
     inkscape:showpageshadow="2"
     inkscape:pageopacity="0.0"
     inkscape:pagecheckerboard="0"
     inkscape:deskcolor="#d1d1d1"
     inkscape:document-units="mm"
     inkscape:zoom="0.55"
     inkscape:cx="368.18182"
     inkscape:cy="475.45455"
     inkscape:window-width="1416"
     inkscape:window-height="804"
     inkscape:window-x="0"
     inkscape:window-y="33"
     inkscape:window-maximized="0"
     inkscape:current-layer="layer1" />
  <defs
     id="defs1" />
  <g
     inkscape:label="Layer 1"
     inkscape:groupmode="layer"
     id="layer1">
    <path
       id="path22"
       style="fill:#ffb84d;fill-opacity:1;stroke:none;stroke-width:1.5;stroke-opacity:1"
       inkscape:label="egg rim"
       d="M 126.3531,16.38 L 124.711,16.5224 L 123.0712,16.6624 L 121.4314,16.8024 L 119.8035,17.0634 L 118.1874,17.398 L 116.5833,17.811 L 114.9933,18.2785 L 113.42,18.8029 L 111.8633,19.3867 L 110.3231,19.9989 L 108.8068,20.6895 L 107.3046,21.3943 L 105.831,22.1703 L 104.3763,22.9676 L 102.9453,23.8077 L 101.5381,24.6857 L 100.1546,25.5922 L 98.7949,26.5295 L 97.466,27.512 L 96.156,28.4968 L 94.8746,29.522 L 93.6169,30.5614 L 92.3781,31.6079 L 91.1726,32.6924 L 89.9814,33.7697 L 88.8281,34.8874 L 87.6842,35.9933 L 86.576,37.13 L 85.4844,38.269 L 84.4118,39.4033 L 83.37,40.5685 L 82.3425,41.7194 L 81.3411,42.8894 L 80.3586,44.0593 L 79.3952,45.2292 L 78.4578,46.4133 L 77.5323,47.5856 L 76.6353,48.7769 L 75.7502,49.9587 L 74.8864,51.1452 L 74.0416,52.3317 L 73.211,53.5159 L 72.3971,54.7024 L 71.6068,55.8913 L 70.8261,57.0755 L 70.0715,58.2691 L 69.324,59.4532 L 68.5883,60.6303 L 67.8811,61.8216 L 67.1811,63.0033 L 66.4858,64.1732 L 65.8166,65.355 L 65.1592,66.5321 L 64.509,67.7043 L 63.8802,68.8814 L 63.2584,70.0513 L 62.6533,71.2236 L 62.06,72.3911 L 61.4739,73.5563 L 60.9091,74.7262 L 60.3443,75.889 L 59.8009,77.0542 L 59.2693,78.2193 L 58.7401,79.375 L 58.2252,80.5354 L 57.7269,81.6982 L 57.2333,82.8539 L 56.742,84.0072 L 56.2769,85.1676 L 55.8189,86.3257 L 55.3609,87.479 L 54.9077,88.6275 L 54.4734,89.7808 L 54.051,90.9365 L 53.6286,92.0874 L 53.2086,93.236 L 52.8123,94.3917 L 52.4207,95.545 L 52.0339,96.6959 L 51.6613,97.854 L 51.2935,99.0073 L 50.9399,100.1653 L 50.5935,101.3257 L 50.2494,102.4838 L 49.9219,103.6442 L 49.6039,104.8094 L 49.2835,105.9722 L 48.9822,107.1373 L 48.6903,108.3072 L 48.3984,109.4772 L 48.1207,110.6518 L 47.8573,111.8265 L 47.5916,113.0035 L 47.3424,114.1853 L 47.1027,115.3694 L 46.8654,116.556 L 46.6447,117.7472 L 46.4335,118.9385 L 46.2223,120.1345 L 46.0348,121.3353 L 45.8497,122.5384 L 45.667,123.7463 L 45.5104,124.9566 L 45.3514,126.1716 L 45.2066,127.3889 L 45.0785,128.6111 L 44.948,129.8379 L 44.8317,131.0672 L 44.7273,132.3012 L 44.6276,133.5423 L 44.5279,134.7857 L 44.4544,136.034 L 44.3808,137.2869 L 44.3286,138.5446 L 44.2788,139.8071 L 44.2503,141.0743 L 44.2289,142.3463 L 44.2242,143.623 L 44.2289,144.9044 L 44.2574,146.1882 L 44.2859,147.4768 L 44.331,148.7725 L 44.4045,150.0682 L 44.4757,151.3734 L 44.5564,152.6833 L 44.6751,153.9908 L 44.7961,155.3055 L 44.9195,156.6297 L 45.0856,157.9467 L 45.2517,159.2732 L 45.425,160.6093 L 45.6077,161.95 L 45.8118,163.2908 L 46.0325,164.6387 L 46.2674,165.989 L 46.5308,167.3392 L 46.8037,168.6943 L 47.1051,170.0469 L 47.4183,171.4067 L 47.7553,172.764 L 48.1113,174.1238 L 48.4909,175.4812 L 48.8896,176.8409 L 49.312,178.1983 L 49.7558,179.5533 L 50.2043,180.9202 L 50.6623,182.2942 L 51.1583,183.6563 L 51.6661,185.0232 L 52.2119,186.3759 L 52.7648,187.7404 L 53.3604,189.0811 L 53.9703,190.429 L 54.611,191.7651 L 55.2707,193.0987 L 55.9471,194.4324 L 56.6424,195.766 L 57.3567,197.0973 L 58.1089,198.4096 L 58.873,199.7219 L 59.6846,201.0081 L 60.5104,202.2919 L 61.3695,203.5544 L 62.238,204.824 L 63.1255,206.0912 L 64.0415,207.3394 L 64.9908,208.5639 L 65.9613,209.7836 L 66.9723,210.963 L 67.995,212.1448 L 69.0249,213.3361 L 70.0928,214.4918 L 71.1821,215.6332 L 72.3069,216.7367 L 73.4483,217.833 L 74.6087,218.9222 L 75.7881,219.9925 L 77.0008,221.0248 L 78.2419,222.0262 L 79.4948,223.0252 L 80.7644,224.0077 L 82.0649,224.9498 L 83.3867,225.8658 L 84.7227,226.7675 L 86.0777,227.6456 L 87.4636,228.4714 L 88.8565,229.302 L 90.2709,230.0969 L 91.7042,230.8539 L 93.1518,231.6015 L 94.6183,232.3039 L 96.1015,232.9778 L 97.6012,233.6257 L 99.1129,234.2379 L 100.6387,234.8288 L 102.1812,235.3699 L 103.7308,235.9038 L 105.2947,236.3903 L 106.8704,236.8483 L 108.4556,237.2659 L 110.0479,237.6741 L 111.6521,238.0277 L 113.2657,238.3504 L 114.8841,238.6423 L 116.5097,238.8891 L 118.14,239.1264 L 119.775,239.3139 L 121.4148,239.4729 L 123.0593,239.6034 L 124.7038,239.6817 L 126.3507,239.7339 L 128,239.76 L 129.6493,239.7339 L 131.2962,239.6817 L 132.9407,239.6034 L 134.5852,239.4729 L 136.225,239.3139 L 137.86,239.1264 L 139.4903,238.8891 L 141.1159,238.6423 L 142.7343,238.3504 L 144.3479,238.0277 L 145.9521,237.6741 L 147.5444,237.2659 L 149.1296,236.8483 L 150.7053,236.3903 L 152.2692,235.9038 L 153.8188,235.3699 L 155.3613,234.8288 L 156.8871,234.2379 L 158.3988,233.6257 L 159.8985,232.9778 L 161.3817,232.3039 L 162.8482,231.6015 L 164.2958,230.8539 L 165.7291,230.0969 L 167.1435,229.302 L 168.5364,228.4714 L 169.9223,227.6456 L 171.2773,226.7675 L 172.6133,225.8658 L 173.9351,224.9498 L 175.2356,224.0077 L 176.5052,223.0252 L 177.7581,222.0262 L 178.9992,221.0248 L 180.2119,219.9925 L 181.3913,218.9222 L 182.5517,217.833 L 183.6931,216.7367 L 184.8179,215.6332 L 185.9072,214.4918 L 186.9751,213.3361 L 188.005,212.1448 L 189.0277,210.963 L 190.0387,209.7836 L 191.0092,208.5639 L 191.9585,207.3394 L 192.8745,206.0912 L 193.762,204.824 L 194.6305,203.5544 L 195.4896,202.2919 L 196.3154,201.0081 L 197.127,199.7219 L 197.8911,198.4096 L 198.6433,197.0973 L 199.3576,195.766 L 200.0529,194.4324 L 200.7293,193.0987 L 201.389,191.7651 L 202.0297,190.429 L 202.6396,189.0811 L 203.2352,187.7404 L 203.7881,186.3759 L 204.3339,185.0232 L 204.8417,183.6563 L 205.3377,182.2942 L 205.7957,180.9202 L 206.2442,179.5533 L 206.688,178.1983 L 207.1104,176.8409 L 207.5091,175.4812 L 207.8887,174.1238 L 208.2447,172.764 L 208.5817,171.4067 L 208.8949,170.0469 L 209.1963,168.6943 L 209.4692,167.3392 L 209.7326,165.989 L 209.9675,164.6387 L 210.1882,163.2908 L 210.3923,161.95 L 210.575,160.6093 L 210.7483,159.2732 L 210.9144,157.9467 L 211.0805,156.6297 L 211.2039,155.3055 L 211.3249,153.9908 L 211.4436,152.6833 L 211.5243,151.3734 L 211.5955,150.0682 L 211.669,148.7725 L 211.7141,147.4768 L 211.7426,146.1882 L 211.7711,144.9044 L 211.7758,143.623 L 211.7711,142.3463 L 211.7497,141.0743 L 211.7212,139.8071 L 211.6714,138.5446 L 211.6192,137.2869 L 211.5456,136.034 L 211.4721,134.7857 L 211.3724,133.5423 L 211.2727,132.3012 L 211.1683,131.0672 L 211.052,129.8379 L 210.9215,128.6111 L 210.7934,127.3889 L 210.6486,126.1716 L 210.4896,124.9566 L 210.333,123.7463 L 210.1503,122.5384 L 209.9652,121.3353 L 209.7777,120.1345 L 209.5665,118.9385 L 209.3553,117.7472 L 209.1346,116.556 L 208.8973,115.3694 L 208.6576,114.1853 L 208.4084,113.0035 L 208.1427,111.8265 L 207.8793,110.6518 L 207.6016,109.4772 L 207.3097,108.3072 L 207.0178,107.1373 L 206.7165,105.9722 L 206.3961,104.8094 L 206.0781,103.6442 L 205.7506,102.4838 L 205.4065,101.3257 L 205.0601,100.1653 L 204.7065,99.0073 L 204.3387,97.854 L 203.9661,96.6959 L 203.5793,95.545 L 203.1877,94.3917 L 202.7914,93.236 L 202.3714,92.0874 L 201.949,90.9365 L 201.5266,89.7808 L 201.0923,88.6275 L 200.6391,87.479 L 200.1811,86.3257 L 199.7231,85.1676 L 199.258,84.0072 L 198.7667,82.8539 L 198.2731,81.6982 L 197.7748,80.5354 L 197.2599,79.375 L 196.7307,78.2193 L 196.1991,77.0542 L 195.6557,75.889 L 195.0909,74.7262 L 194.5261,73.5563 L 193.94,72.3911 L 193.3467,71.2236 L 192.7416,70.0513 L 192.1198,68.8814 L 191.491,67.7043 L 190.8408,66.5321 L 190.1834,65.355 L 189.5142,64.1732 L 188.8189,63.0033 L 188.1189,61.8216 L 187.4117,60.6303 L 186.676,59.4532 L 185.9285,58.2691 L 185.1739,57.0755 L 184.3932,55.8913 L 183.6029,54.7024 L 182.789,53.5159 L 181.9584,52.3317 L 181.1136,51.1452 L 180.2498,49.9587 L 179.3647,48.7769 L 178.4677,47.5856 L 177.5422,46.4133 L 176.6048,45.2292 L 175.6414,44.0593 L 174.6589,42.8894 L 173.6575,41.7194 L 172.63,40.5685 L 171.5882,39.4033 L 170.5156,38.269 L 169.424,37.13 L 168.3158,35.9933 L 167.1719,34.8874 L 166.0186,33.7697 L 164.8274,32.6924 L 163.6219,31.6079 L 162.3831,30.5614 L 161.1254,29.522 L 159.844,28.4968 L 158.534,27.512 L 157.2051,26.5295 L 155.8454,25.5922 L 154.4619,24.6857 L 153.0547,23.8077 L 151.6237,22.9676 L 150.169,22.1703 L 148.6954,21.3943 L 147.1932,20.6895 L 145.6769,19.9989 L 144.1367,19.3867 L 142.58,18.8029 L 141.0067,18.2785 L 139.4167,17.811 L 137.8126,17.398 L 136.1965,17.0634 L 134.5686,16.8024 L 132.9288,16.6624 L 131.289,16.5224 L 129.6469,16.38 L 128,16.24 Z M 128,28.2379 L 129.4232,28.3602 L 130.8436,28.4826 L 132.2616,28.6037 L 133.6756,28.7667 L 135.0792,29.0404 L 136.4701,29.4054 L 137.8482,29.8271 L 139.2116,30.3074 L 140.5602,30.8296 L 141.8904,31.4106 L 143.2045,32.0233 L 144.4969,32.6944 L 145.771,33.3943 L 147.0236,34.1356 L 148.2548,34.9111 L 149.4651,35.7139 L 150.6517,36.5517 L 151.8155,37.4174 L 152.9589,38.2983 L 154.0781,39.2068 L 155.178,40.1242 L 156.255,41.0609 L 157.3101,42.0125 L 158.343,42.9787 L 159.354,43.9574 L 160.3451,44.943 L 161.3127,45.9441 L 162.264,46.9424 L 163.1939,47.9505 L 164.1025,48.9674 L 164.9945,49.9828 L 165.865,51.0072 L 166.719,52.0304 L 167.5543,53.057 L 168.3702,54.0883 L 169.172,55.1146 L 169.9515,56.1509 L 170.7191,57.1791 L 171.4686,58.2103 L 172.2022,59.2408 L 172.9223,60.2675 L 173.627,61.2934 L 174.3135,62.323 L 174.9889,63.3461 L 175.645,64.3746 L 176.2904,65.3967 L 176.927,66.4109 L 177.5454,67.4294 L 178.1491,68.4476 L 178.747,69.4557 L 179.3351,70.4587 L 179.9043,71.4674 L 180.4642,72.4709 L 181.0165,73.4682 L 181.5513,74.4695 L 182.0799,75.4638 L 182.5953,76.4582 L 183.1008,77.4497 L 183.5989,78.4365 L 184.0838,79.4239 L 184.5603,80.408 L 185.0294,81.3881 L 185.4843,82.3702 L 185.9312,83.3492 L 186.3758,84.3212 L 186.8077,85.2945 L 187.2259,86.2697 L 187.6404,87.2397 L 188.0519,88.2048 L 188.4491,89.1726 L 188.8344,90.1413 L 189.2165,91.1059 L 189.5972,92.0657 L 189.9732,93.0229 L 190.3345,93.9836 L 190.6858,94.9449 L 191.0369,95.9019 L 191.3862,96.8559 L 191.7227,97.8126 L 192.0494,98.7704 L 192.3728,99.7266 L 192.6904,100.6824 L 192.9981,101.6398 L 193.3027,102.5962 L 193.5955,103.555 L 193.8822,104.5141 L 194.1672,105.4722 L 194.4432,106.4321 L 194.7095,107.394 L 194.973,108.3558 L 195.2337,109.3178 L 195.4814,110.2831 L 195.7226,111.2497 L 195.9638,112.2165 L 196.1941,113.1861 L 196.414,114.1583 L 196.6332,115.1314 L 196.8451,116.1067 L 197.0473,117.0848 L 197.2449,118.0649 L 197.4379,119.0472 L 197.6193,120.0327 L 197.7945,121.0208 L 197.9694,122.0111 L 198.1263,123.0053 L 198.2801,124.0021 L 198.4321,125.0017 L 198.5708,126.0048 L 198.7018,127.0111 L 198.8295,128.0208 L 198.9456,129.034 L 199.0524,130.0506 L 199.1605,131.0712 L 199.2574,132.0955 L 199.3448,133.1235 L 199.4284,134.1558 L 199.5116,135.193 L 199.5819,136.2341 L 199.6434,137.2794 L 199.6974,138.3293 L 199.7404,139.3834 L 199.7777,140.4424 L 199.8005,141.5051 L 199.8171,142.5728 L 199.8209,143.6445 L 199.8169,144.7211 L 199.7935,145.8 L 199.7695,146.8857 L 199.7347,147.9759 L 199.6783,149.0675 L 199.6177,150.1653 L 199.5533,151.2699 L 199.4676,152.3757 L 199.3662,153.4842 L 199.263,154.6005 L 199.1457,155.7204 L 199.0049,156.8398 L 198.8627,157.9677 L 198.7151,159.1027 L 198.5595,160.2442 L 198.3854,161.3876 L 198.198,162.5349 L 197.9988,163.687 L 197.777,164.8383 L 197.5451,165.9953 L 197.292,167.1518 L 197.0266,168.3126 L 196.7436,169.4748 L 196.4436,170.6382 L 196.1246,171.8018 L 195.7884,172.9664 L 195.4336,174.1307 L 195.0595,175.2942 L 194.6761,176.4638 L 194.2868,177.6425 L 193.8796,178.8215 L 193.4484,179.9961 L 192.9977,181.1692 L 192.5252,182.3385 L 192.0345,183.507 L 191.5159,184.6657 L 190.98,185.8234 L 190.4212,186.9746 L 189.8469,188.1261 L 189.2579,189.2787 L 188.6531,190.4313 L 188.0272,191.5786 L 187.3742,192.7133 L 186.7012,193.8424 L 185.9964,194.9522 L 185.2727,196.0563 L 184.527,197.1504 L 183.7715,198.2494 L 182.9979,199.3434 L 182.1968,200.4193 L 181.3699,201.4781 L 180.5186,202.5208 L 179.6401,203.542 L 178.7527,204.5677 L 177.8527,205.5932 L 176.9226,206.5905 L 175.9685,207.5677 L 174.9891,208.5209 L 173.9954,209.4682 L 172.986,210.4064 L 171.9538,211.3226 L 170.8935,212.204 L 169.8156,213.0694 L 168.7255,213.9293 L 167.6152,214.7661 L 166.4813,215.5705 L 165.3315,216.3577 L 164.1669,217.1298 L 162.98,217.8661 L 161.7778,218.5827 L 160.5636,219.2866 L 159.3301,219.9568 L 158.0832,220.6075 L 156.8215,221.2328 L 155.5436,221.8256 L 154.2527,222.3942 L 152.9486,222.935 L 151.6331,223.4527 L 150.3037,223.934 L 148.9655,224.3976 L 147.6164,224.8314 L 146.2568,225.2338 L 144.8873,225.6033 L 143.5118,225.9584 L 142.1269,226.2755 L 140.7343,226.5589 L 139.3357,226.8157 L 137.9304,227.0342 L 136.522,227.2404 L 135.1084,227.4088 L 133.6912,227.5488 L 132.2713,227.6642 L 130.8486,227.7347 L 129.4247,227.7803 L 128,227.8037 L 126.5753,227.7803 L 125.1514,227.7347 L 123.7287,227.6642 L 122.3088,227.5488 L 120.8916,227.4088 L 119.478,227.2404 L 118.0696,227.0342 L 116.6643,226.8157 L 115.2657,226.5589 L 113.8731,226.2755 L 112.4882,225.9584 L 111.1127,225.6033 L 109.7432,225.2338 L 108.3836,224.8314 L 107.0345,224.3976 L 105.6963,223.934 L 104.3669,223.4527 L 103.0514,222.935 L 101.7473,222.3942 L 100.4564,221.8256 L 99.1785,221.2328 L 97.9168,220.6075 L 96.6699,219.9568 L 95.4364,219.2866 L 94.2222,218.5827 L 93.02,217.8661 L 91.8331,217.1298 L 90.6685,216.3577 L 89.5187,215.5705 L 88.3848,214.7661 L 87.2745,213.9293 L 86.1844,213.0694 L 85.1065,212.204 L 84.0462,211.3226 L 83.014,210.4064 L 82.0046,209.4682 L 81.0109,208.5209 L 80.0315,207.5677 L 79.0774,206.5905 L 78.1473,205.5932 L 77.2473,204.5677 L 76.3599,203.542 L 75.4814,202.5208 L 74.6301,201.4781 L 73.8032,200.4193 L 73.0021,199.3434 L 72.2285,198.2494 L 71.473,197.1504 L 70.7273,196.0563 L 70.0036,194.9522 L 69.2988,193.8424 L 68.6258,192.7133 L 67.9728,191.5786 L 67.3469,190.4313 L 66.7421,189.2787 L 66.1531,188.1261 L 65.5788,186.9746 L 65.02,185.8234 L 64.4841,184.6657 L 63.9655,183.507 L 63.4748,182.3385 L 63.0023,181.1692 L 62.5516,179.9961 L 62.1204,178.8215 L 61.7132,177.6425 L 61.3239,176.4638 L 60.9405,175.2942 L 60.5664,174.1307 L 60.2116,172.9664 L 59.8754,171.8018 L 59.5564,170.6382 L 59.2564,169.4748 L 58.9734,168.3126 L 58.708,167.1518 L 58.4549,165.9953 L 58.223,164.8383 L 58.0012,163.687 L 57.802,162.5349 L 57.6146,161.3876 L 57.4405,160.2442 L 57.2849,159.1027 L 57.1373,157.9677 L 56.9951,156.8398 L 56.8543,155.7204 L 56.737,154.6005 L 56.6338,153.4842 L 56.5324,152.3757 L 56.4467,151.2699 L 56.3823,150.1653 L 56.3217,149.0675 L 56.2653,147.9759 L 56.2305,146.8857 L 56.2065,145.8 L 56.1831,144.7211 L 56.1791,143.6445 L 56.1829,142.5728 L 56.1995,141.5051 L 56.2223,140.4424 L 56.2596,139.3834 L 56.3026,138.3293 L 56.3566,137.2794 L 56.4181,136.2341 L 56.4884,135.193 L 56.5716,134.1558 L 56.6552,133.1235 L 56.7426,132.0955 L 56.8395,131.0712 L 56.9476,130.0506 L 57.0544,129.034 L 57.1705,128.0208 L 57.2982,127.0111 L 57.4292,126.0048 L 57.5679,125.0017 L 57.7199,124.0021 L 57.8737,123.0053 L 58.0306,122.0111 L 58.2055,121.0208 L 58.3807,120.0327 L 58.5621,119.0472 L 58.7551,118.0649 L 58.9527,117.0848 L 59.1549,116.1067 L 59.3668,115.1314 L 59.586,114.1583 L 59.8059,113.1861 L 60.0362,112.2165 L 60.2774,111.2497 L 60.5186,110.2831 L 60.7663,109.3178 L 61.027,108.3558 L 61.2905,107.394 L 61.5568,106.4321 L 61.8328,105.4722 L 62.1178,104.5141 L 62.4045,103.555 L 62.6973,102.5962 L 63.0019,101.6398 L 63.3096,100.6824 L 63.6272,99.7266 L 63.9506,98.7704 L 64.2773,97.8126 L 64.6138,96.8559 L 64.9631,95.9019 L 65.3142,94.9449 L 65.6655,93.9836 L 66.0268,93.0229 L 66.4028,92.0657 L 66.7835,91.1059 L 67.1656,90.1413 L 67.5509,89.1726 L 67.9481,88.2048 L 68.3596,87.2397 L 68.7741,86.2697 L 69.1923,85.2945 L 69.6242,84.3212 L 70.0688,83.3492 L 70.5157,82.3702 L 70.9706,81.3881 L 71.4397,80.408 L 71.9162,79.4239 L 72.4011,78.4365 L 72.8992,77.4497 L 73.4047,76.4582 L 73.9201,75.4638 L 74.4487,74.4695 L 74.9835,73.4682 L 75.5358,72.4709 L 76.0957,71.4674 L 76.6649,70.4587 L 77.253,69.4557 L 77.8509,68.4476 L 78.4546,67.4294 L 79.073,66.4109 L 79.7096,65.3967 L 80.355,64.3746 L 81.0111,63.3461 L 81.6865,62.323 L 82.373,61.2934 L 83.0777,60.2675 L 83.7978,59.2408 L 84.5314,58.2103 L 85.2809,57.1791 L 86.0485,56.1509 L 86.828,55.1146 L 87.6298,54.0883 L 88.4457,53.057 L 89.281,52.0304 L 90.135,51.0072 L 91.0055,49.9828 L 91.8975,48.9674 L 92.8061,47.9505 L 93.736,46.9424 L 94.6873,45.9441 L 95.6549,44.943 L 96.646,43.9574 L 97.657,42.9787 L 98.6899,42.0125 L 99.745,41.0609 L 100.822,40.1242 L 101.9219,39.2068 L 103.0411,38.2983 L 104.1845,37.4174 L 105.3483,36.5517 L 106.5349,35.7139 L 107.7452,34.9111 L 108.9764,34.1356 L 110.229,33.3943 L 111.5031,32.6944 L 112.7955,32.0233 L 114.1096,31.4106 L 115.4398,30.8296 L 116.7884,30.3074 L 118.1518,29.8271 L 119.5299,29.4054 L 120.9208,29.0404 L 122.3244,28.7667 L 123.7384,28.6037 L 125.1564,28.4826 L 126.5768,28.3602 Z" />
    <path
       id="path17"
       style="fill:#ffd166;fill-opacity:1;stroke:none;stroke-width:1.5;stroke-opacity:1"
       inkscape:label="egg face"
       d="M 126.5768,28.3602 L 125.1564,28.4826 L 123.7384,28.6037 L 122.3244,28.7667 L 120.9208,29.0404 L 119.5299,29.4054 L 118.1518,29.8271 L 116.7884,30.3074 L 115.4398,30.8296 L 114.1096,31.4106 L 112.7955,32.0233 L 111.5031,32.6944 L 110.229,33.3943 L 108.9764,34.1356 L 107.7452,34.9111 L 106.5349,35.7139 L 105.3483,36.5517 L 104.1845,37.4174 L 103.0411,38.2983 L 101.9219,39.2068 L 100.822,40.1242 L 99.745,41.0609 L 98.6899,42.0125 L 97.657,42.9787 L 96.646,43.9574 L 95.6549,44.943 L 94.6873,45.9441 L 93.736,46.9424 L 92.8061,47.9505 L 91.8975,48.9674 L 91.0055,49.9828 L 90.135,51.0072 L 89.281,52.0304 L 88.4457,53.057 L 87.6298,54.0883 L 86.828,55.1146 L 86.0485,56.1509 L 85.2809,57.1791 L 84.5314,58.2103 L 83.7978,59.2408 L 83.0777,60.2675 L 82.373,61.2934 L 81.6865,62.323 L 81.0111,63.3461 L 80.355,64.3746 L 79.7096,65.3967 L 79.073,66.4109 L 78.4546,67.4294 L 77.8509,68.4476 L 77.253,69.4557 L 76.6649,70.4587 L 76.0957,71.4674 L 75.5358,72.4709 L 74.9835,73.4682 L 74.4487,74.4695 L 73.9201,75.4638 L 73.4047,76.4582 L 72.8992,77.4497 L 72.4011,78.4365 L 71.9162,79.4239 L 71.4397,80.408 L 70.9706,81.3881 L 70.5157,82.3702 L 70.0688,83.3492 L 69.6242,84.3212 L 69.1923,85.2945 L 68.7741,86.2697 L 68.3596,87.2397 L 67.9481,88.2048 L 67.5509,89.1726 L 67.1656,90.1413 L 66.7835,91.1059 L 66.4028,92.0657 L 66.0268,93.0229 L 65.6655,93.9836 L 65.3142,94.9449 L 64.9631,95.9019 L 64.6138,96.8559 L 64.2773,97.8126 L 63.9506,98.7704 L 63.6272,99.7266 L 63.3096,100.6824 L 63.0019,101.6398 L 62.6973,102.5962 L 62.4045,103.555 L 62.1178,104.5141 L 61.8328,105.4722 L 61.5568,106.4321 L 61.2905,107.394 L 61.027,108.3558 L 60.7663,109.3178 L 60.5186,110.2831 L 60.2774,111.2497 L 60.0362,112.2165 L 59.8059,113.1861 L 59.586,114.1583 L 59.3668,115.1314 L 59.1549,116.1067 L 58.9527,117.0848 L 58.7551,118.0649 L 58.5621,119.0472 L 58.3807,120.0327 L 58.2055,121.0208 L 58.0306,122.0111 L 57.8737,123.0053 L 57.7199,124.0021 L 57.5679,125.0017 L 57.4292,126.0048 L 57.2982,127.0111 L 57.1705,128.0208 L 57.0544,129.034 L 56.9476,130.0506 L 56.8395,131.0712 L 56.7426,132.0955 L 56.6552,133.1235 L 56.5716,134.1558 L 56.4884,135.193 L 56.4181,136.2341 L 56.3566,137.2794 L 56.3026,138.3293 L 56.2596,139.3834 L 56.2223,140.4424 L 56.1995,141.5051 L 56.1829,142.5728 L 56.1791,143.6445 L 56.1831,144.7211 L 56.2065,145.8 L 56.2305,146.8857 L 56.2653,147.9759 L 56.3217,149.0675 L 56.3823,150.1653 L 56.4467,151.2699 L 56.5324,152.3757 L 56.6338,153.4842 L 56.737,154.6005 L 56.8543,155.7204 L 56.9951,156.8398 L 57.1373,157.9677 L 57.2849,159.1027 L 57.4405,160.2442 L 57.6146,161.3876 L 57.802,162.5349 L 58.0012,163.687 L 58.223,164.8383 L 58.4549,165.9953 L 58.708,167.1518 L 58.9734,168.3126 L 59.2564,169.4748 L 59.5564,170.6382 L 59.8754,171.8018 L 60.2116,172.9664 L 60.5664,174.1307 L 60.9405,175.2942 L 61.3239,176.4638 L 61.7132,177.6425 L 62.1204,178.8215 L 62.5516,179.9961 L 63.0023,181.1692 L 63.4748,182.3385 L 63.9655,183.507 L 64.4841,184.6657 L 65.02,185.8234 L 65.5788,186.9746 L 66.1531,188.1261 L 66.7421,189.2787 L 67.3469,190.4313 L 67.9728,191.5786 L 68.6258,192.7133 L 69.2988,193.8424 L 70.0036,194.9522 L 70.7273,196.0563 L 71.473,197.1504 L 72.2285,198.2494 L 73.0021,199.3434 L 73.8032,200.4193 L 74.6301,201.4781 L 75.4814,202.5208 L 76.3599,203.542 L 77.2473,204.5677 L 78.1473,205.5932 L 79.0774,206.5905 L 80.0315,207.5677 L 81.0109,208.5209 L 82.0046,209.4682 L 83.014,210.4064 L 84.0462,211.3226 L 85.1065,212.204 L 86.1844,213.0694 L 87.2745,213.9293 L 88.3848,214.7661 L 89.5187,215.5705 L 90.6685,216.3577 L 91.8331,217.1298 L 93.02,217.8661 L 94.2222,218.5827 L 95.4364,219.2866 L 96.6699,219.9568 L 97.9168,220.6075 L 99.1785,221.2328 L 100.4564,221.8256 L 101.7473,222.3942 L 103.0514,222.935 L 104.3669,223.4527 L 105.6963,223.934 L 107.0345,224.3976 L 108.3836,224.8314 L 109.7432,225.2338 L 111.1127,225.6033 L 112.4882,225.9584 L 113.8731,226.2755 L 115.2657,226.5589 L 116.6643,226.8157 L 118.0696,227.0342 L 119.478,227.2404 L 120.8916,227.4088 L 122.3088,227.5488 L 123.7287,227.6642 L 125.1514,227.7347 L 126.5753,227.7803 L 128,227.8037 L 129.4247,227.7803 L 130.8486,227.7347 L 132.2713,227.6642 L 133.6912,227.5488 L 135.1084,227.4088 L 136.522,227.2404 L 137.9304,227.0342 L 139.3357,226.8157 L 140.7343,226.5589 L 142.1269,226.2755 L 143.5118,225.9584 L 144.8873,225.6033 L 146.2568,225.2338 L 147.6164,224.8314 L 148.9655,224.3976 L 150.3037,223.934 L 151.6331,223.4527 L 152.9486,222.935 L 154.2527,222.3942 L 155.5436,221.8256 L 156.8215,221.2328 L 158.0832,220.6075 L 159.3301,219.9568 L 160.5636,219.2866 L 161.7778,218.5827 L 162.98,217.8661 L 164.1669,217.1298 L 165.3315,216.3577 L 166.4813,215.5705 L 167.6152,214.7661 L 168.7255,213.9293 L 169.8156,213.0694 L 170.8935,212.204 L 171.9538,211.3226 L 172.986,210.4064 L 173.9954,209.4682 L 174.9891,208.5209 L 175.9685,207.5677 L 176.9226,206.5905 L 177.8527,205.5932 L 178.7527,204.5677 L 179.6401,203.542 L 180.5186,202.5208 L 181.3699,201.4781 L 182.1968,200.4193 L 182.9979,199.3434 L 183.7715,198.2494 L 184.527,197.1504 L 185.2727,196.0563 L 185.9964,194.9522 L 186.7012,193.8424 L 187.3742,192.7133 L 188.0272,191.5786 L 188.6531,190.4313 L 189.2579,189.2787 L 189.8469,188.1261 L 190.4212,186.9746 L 190.98,185.8234 L 191.5159,184.6657 L 192.0345,183.507 L 192.5252,182.3385 L 192.9977,181.1692 L 193.4484,179.9961 L 193.8796,178.8215 L 194.2868,177.6425 L 194.6761,176.4638 L 195.0595,175.2942 L 195.4336,174.1307 L 195.7884,172.9664 L 196.1246,171.8018 L 196.4436,170.6382 L 196.7436,169.4748 L 197.0266,168.3126 L 197.292,167.1518 L 197.5451,165.9953 L 197.777,164.8383 L 197.9988,163.687 L 198.198,162.5349 L 198.3854,161.3876 L 198.5595,160.2442 L 198.7151,159.1027 L 198.8627,157.9677 L 199.0049,156.8398 L 199.1457,155.7204 L 199.263,154.6005 L 199.3662,153.4842 L 199.4676,152.3757 L 199.5533,151.2699 L 199.6177,150.1653 L 199.6783,149.0675 L 199.7347,147.9759 L 199.7695,146.8857 L 199.7935,145.8 L 199.8169,144.7211 L 199.8209,143.6445 L 199.8171,142.5728 L 199.8005,141.5051 L 199.7777,140.4424 L 199.7404,139.3834 L 199.6974,138.3293 L 199.6434,137.2794 L 199.5819,136.2341 L 199.5116,135.193 L 199.4284,134.1558 L 199.3448,133.1235 L 199.2574,132.0955 L 199.1605,131.0712 L 199.0524,130.0506 L 198.9456,129.034 L 198.8295,128.0208 L 198.7018,127.0111 L 198.5708,126.0048 L 198.4321,125.0017 L 198.2801,124.0021 L 198.1263,123.0053 L 197.9694,122.0111 L 197.7945,121.0208 L 197.6193,120.0327 L 197.4379,119.0472 L 197.2449,118.0649 L 197.0473,117.0848 L 196.8451,116.1067 L 196.6332,115.1314 L 196.414,114.1583 L 196.1941,113.1861 L 195.9638,112.2165 L 195.7226,111.2497 L 195.4814,110.2831 L 195.2337,109.3178 L 194.973,108.3558 L 194.7095,107.394 L 194.4432,106.4321 L 194.1672,105.4722 L 193.8822,104.5141 L 193.5955,103.555 L 193.3027,102.5962 L 192.9981,101.6398 L 192.6904,100.6824 L 192.3728,99.7266 L 192.0494,98.7704 L 191.7227,97.8126 L 191.3862,96.8559 L 191.0369,95.9019 L 190.6858,94.9449 L 190.3345,93.9836 L 189.9732,93.0229 L 189.5972,92.0657 L 189.2165,91.1059 L 188.8344,90.1413 L 188.4491,89.1726 L 188.0519,88.2048 L 187.6404,87.2397 L 187.2259,86.2697 L 186.8077,85.2945 L 186.3758,84.3212 L 185.9312,83.3492 L 185.4843,82.3702 L 185.0294,81.3881 L 184.5603,80.408 L 184.0838,79.4239 L 183.5989,78.4365 L 183.1008,77.4497 L 182.5953,76.4582 L 182.0799,75.4638 L 181.5513,74.4695 L 181.0165,73.4682 L 180.4642,72.4709 L 179.9043,71.4674 L 179.3351,70.4587 L 178.747,69.4557 L 178.1491,68.4476 L 177.5454,67.4294 L 176.927,66.4109 L 176.2904,65.3967 L 175.645,64.3746 L 174.9889,63.3461 L 174.3135,62.323 L 173.627,61.2934 L 172.9223,60.2675 L 172.2022,59.2408 L 171.4686,58.2103 L 170.7191,57.1791 L 169.9515,56.1509 L 169.172,55.1146 L 168.3702,54.0883 L 167.5543,53.057 L 166.719,52.0304 L 165.865,51.0072 L 164.9945,49.9828 L 164.1025,48.9674 L 163.1939,47.9505 L 162.264,46.9424 L 161.3127,45.9441 L 160.3451,44.943 L 159.354,43.9574 L 158.343,42.9787 L 157.3101,42.0125 L 156.255,41.0609 L 155.178,40.1242 L 154.0781,39.2068 L 152.9589,38.2983 L 151.8155,37.4174 L 150.6517,36.5517 L 149.4651,35.7139 L 148.2548,34.9111 L 147.0236,34.1356 L 145.771,33.3943 L 144.4969,32.6944 L 143.2045,32.0233 L 141.8904,31.4106 L 140.5602,30.8296 L 139.2116,30.3074 L 137.8482,29.8271 L 136.4701,29.4054 L 135.0792,29.0404 L 133.6756,28.7667 L 132.2616,28.6037 L 130.8436,28.4826 L 129.4232,28.3602 L 128,28.2379 Z M 128,188.9436 A 5.2505,5.2505 0 0,1 122.9306,184.8573 C 119.7903,171.0329 111.0725,158.4295 99.2338,150.6224 C 93.5759,146.8712 87.2449,144.1321 80.6614,142.6408 A 5.2505,5.2505 0 0,1 80.6614,132.4012 C 93.9797,129.3814 106.1945,121.2228 114.0274,110.0378 C 118.2439,104.0725 121.2977,97.2786 122.9282,90.182 A 5.2505,5.2505 0 0,1 128,86.1091 A 5.2505,5.2505 0 0,1 133.0718,90.182 C 134.7023,97.2786 137.7561,104.0725 141.9726,110.0378 C 149.8055,121.2228 162.0203,129.3814 175.3386,132.4012 A 5.2505,5.2505 0 0,1 175.3386,142.6408 C 168.7551,144.1321 162.4241,146.8712 156.7662,150.6224 C 144.9275,158.4295 136.2097,171.0329 133.0694,184.8573 A 5.2505,5.2505 0 0,1 128,188.9436 Z" />
    <path
       id="path9-5-7"
       style="color:#000000;fill:#ffb84d;stroke:none;stroke-width:1.5;stroke-linejoin:round;stroke-opacity:1;-inkscape-stroke:none"
       inkscape:label="diamond rim"
       d="M 128,188.9436 A 5.2505,5.2505 0 0,0 133.0694,184.8573 C 136.2097,171.0329 144.9275,158.4295 156.7662,150.6224 C 162.4241,146.8712 168.7551,144.1321 175.3386,142.6408 A 5.2505,5.2505 0 0,0 175.3386,132.4012 C 162.0203,129.3814 149.8055,121.2228 141.9726,110.0378 C 137.7561,104.0725 134.7023,97.2786 133.0718,90.182 A 5.2505,5.2505 0 0,0 128,86.1091 A 5.2505,5.2505 0 0,0 122.9282,90.182 C 121.2977,97.2786 118.2439,104.0725 114.0274,110.0378 C 106.1945,121.2228 93.9797,129.3814 80.6614,132.4012 A 5.2505,5.2505 0 0,0 80.6614,142.6408 C 87.2449,144.1321 93.5759,146.8712 99.2338,150.6224 C 111.0725,158.4295 119.7903,171.0329 122.9306,184.8573 A 5.2505,5.2505 0 0,0 128,188.9436 Z M 128,100.6196 C 129.3932,106.8107 132.0599,112.7414 135.7441,117.9518 C 142.626,127.7771 153.2493,134.8687 164.9439,137.5204 C 159.163,138.8299 153.6362,141.2261 148.6976,144.499 C 138.2966,151.3568 130.7187,162.3135 128,174.4608 C 125.2813,162.3135 117.7034,151.3568 107.3024,144.499 C 102.3638,141.2261 96.837,138.8299 91.0561,137.5204 C 102.7507,134.8687 113.374,127.7771 120.2559,117.9518 C 123.9401,112.7414 126.6068,106.8107 128,100.6196 Z" />
  </g>
</svg>
