<?xml version="1.0" encoding="UTF-8" standalone="no"?>
<!-- Created with Inkscape (http://www.inkscape.org/) -->

<svg
   width="256mm"
   height="256mm"
   viewBox="0 0 256 256"
   version="1.1"
   id="svg1"
   inkscape:version="1.3 (0e150ed, 2023-07-21)"
   sodipodi:docname="egg_coin.svg"
   xmlns:inkscape="http://www.inkscape.org/namespaces/inkscape"
   xmlns:sodipodi="http://sodipodi.sourceforge.net/DTD/sodipodi-0.dtd"
   xmlns="http://www.w3.org/2000/svg"
   xmlns:svg="http://www.w3.org/2000/svg">
  <sodipodi:namedview
     id="namedview1"
     pagecolor="#ffffff"
     bordercolor="#000000"
     borderopacity="0.25"
     inkscape:showpageshadow="2"
     inkscape:pageopacity="0.0"
     inkscape:pagecheckerboard="0"
     inkscape:deskcolor="#d1d1d1"
     inkscape:document-units="mm"
     inkscape:zoom="0.55"
     inkscape:cx="368.18182"
     inkscape:cy="475.45455"
     inkscape:window-width="1416"
     inkscape:window-height="804"
     inkscape:window-x="0"
     inkscape:window-y="33"
     inkscape:window-maximized="0"
     inkscape:current-layer="layer1" />
  <defs
     id="defs1" />
  <g
     inkscape:label="Layer 1"
     inkscape:groupmode="layer"
     id="layer1">
    <path
       id="path22"
       style="fill:#ffb84d;fill-opacity:1;stroke:none;stroke-width:1.5;stroke-opacity:1"
       inkscape:label="egg rim"
       d="M 126.3531,16.38 L 124.711,16.5224 L 123.0712,16.6624 L 121.4314,16.8024 L 119.8035,17.0634 L 118.1874,17.398 L 116.5833,17.811 L 114.9933,18.2785 L 113.42,18.8029 L 111.8633,19.3867 L 110.3231,19.9989 L 108.8068,20.6895 L 107.3046,21.3943 L 105.831,22.1703 L 104.3763,22.9676 L 102.9453,23.8077 L 101.5381,24.6857 L 100.1546,25.5922 L 98.7949,26.5295 L 97.466,27.512 L 96.156,28.4968 L 94.8746,29.522 L 93.6169,30.5614 L 92.3781,31.6079 L 91.1726,32.6924 L 89.9814,33.7697 L 88.8281,34.8874 L 87.6842,35.9933 L 86.576,37.13 L 85.4844,38.269 L 84.4118,39.4033 L 83.37,40.5685 L 82.3425,41.7194 L 81.3411,42.8894 L 80.3586,44.0593 L 79.3952,45.2292 L 78.4578,46.4133 L 77.5323,47.5856 L 76.6353,48.7769 L 75.7502,49.9587 L 74.8864,51.1452 L 74.0416,52.3317 L 73.211,53.5159 L 72.3971,54.7024 L 71.6068,55.8913 L 70.8261,57.0755 L 70.0715,58.2691 L 69.324,59.4532 L 68.5883,60.6303 L 67.8811,61.8216 L 67.1811,63.0033 L 66.4858,64.1732 L 65.8166,65.355 L 65.1592,66.5321 L 64.509,67.7043 L 63.8802,68.8814 L 63.2584,70.0513 L 62.6533,71.2236 L 62.06,72.3911 L 61.4739,73.5563 L 60.9091,74.7262 L 60.3443,75.889 L 59.8009,77.0542 L 59.2693,78.2193 L 58.7401,79.375 L 58.2252,80.5354 L 57.7269,81.6982 L 57.2333,82.8539 L 56.742,84.0072 L 56.2769,85.1676 L 55.8189,86.3257 L 55.3609,87.479 L 54.9077,88.6275 L 54.4734,89.7808 L 54.051,90.9365 L 53.6286,92.0874 L 53.2086,93.236 L 52.8123,94.3917 L 52.4207,95.545 L 52.0339,96.6959 L 51.6613,97.854 L 51.2935,99.0073 L 50.9399,100.1653 L 50.5935,101.3257 L 50.2494,102.4838 L 49.9219,103.6442 L 49.6039,104.8094 L 49.2835,105.9722 L 48.9822,107.1373 L 48.6903,108.3072 L 48.3984,109.4772 L 48.1207,110.6518 L 47.8573,111.8265 L 47.5916,113.0035 L 47.3424,114.1853 L 47.1027,115.3694 L 46.8654,116.556 L 46.6447,117.7472 L 46.4335,118.9385 L 46.2223,120.1345 L 46.0348,121.3353 L 45.8497,122.5384 L 45.667,123.7463 L 45.5104,124.9566 L 45.3514,126.1716 L 45.2066,127.3889 L 45.0785,128.6111 L 44.948,129.8379 L 44.8317,131.0672 L 44.7273,132.3012 L 44.6276,133.5423 L 44.5279,134.7857 L 44.4544,136.034 L 44.3808,137.2869 L 44.3286,138.5446 L 44.2788,139.8071 L 44.2503,141.0743 L 44.2289,142.3463 L 44.2242,143.623 L 44.2289,144.9044 L 44.2574,146.1882 L 44.2859,147.4768 L 44.331,148.7725 L 44.4045,150.0682 L 44.4757,151.3734 L 44.5564,152.6833 L 44.6751,153.9908 L 44.7961,155.3055 L 44.9195,156.6297 L 45.0856,157.9467 L 45.2517,159.2732 L 45.425,160.6093 L 45.6077,161.95 L 45.8118,163.2908 L 46.0325,164.6387 L 46.2674,165.989 L 46.5308,167.3392 L 46.8037,168.6943 L 47.1051,170.0469 L 47.4183,171.4067 L 47.7553,172.764 L 48.1113,174.1238 L 48.4909,175.4812 L 48.8896,176.8409 L 49.312,178.1983 L 49.7558,179.5533 L 50.2043,180.9202 L 50.6623,182.2942 L 51.1583,183.6563 L 51.6661,185.0232 L 52.2119,186.3759 L 52.7648,187.7404 L 53.3604,189.0811 L 53.9703,190.429 L 54.611,191.7651 L 55.2707,193.0987 L 55.9471,194.4324 L 56.6424,195.766 L 57.3567,197.0973 L 58.1089,198.4096 L 58.873,199.7219 L 59.6846,201.0081 L 60.5104,202.2919 L 61.3695,203.5544 L 62.238,204.824 L 63.1255,206.0912 L 64.0415,207.3394 L 64.9908,208.5639 L 65.9613,209.7836 L 66.9723,210.963 L 67.995,212.1448 L 69.0249,213.3361 L 70.0928,214.4918 L 71.1821,215.6332 L 72.3069,216.7367 L 73.4483,217.833 L 74.6087,218.9222 L 75.7881,219.9925 L 77.0008,221.0248 L 78.2419,222.0262 L 79.4948,223.0252 L 80.7644,224.0077 L 82.0649,224.9498 L 83.3867,225.8658 L 84.7227,226.7675 L 86.0777,227.6456 L 87.4636,228.4714 L 88.8565,229.302 L 90.2709,230.0969 L 91.7042,230.8539 L 93.1518,231.6015 L 94.6183,232.3039 L 96.1015,232.9778 L 97.6012,233.6257 L 99.1129,234.2379 L 100.6387,234.8288 L 102.1812,235.3699 L 103.7308,235.9038 L 105.2947,236.3903 L 106.8704,236.8483 L 108.4556,237.2659 L 110.0479,237.6741 L 111.6521,238.0277 L 113.2657,238.3504 L 114.8841,238.6423 L 116.5097,238.8891 L 118.14,239.1264 L 119.775,239.3139 L 121.4148,239.4729 L 123.0593,239.6034 L 124.7038,239.6817 L 126.3507,239.7339 L 128,239.76 L 129.6493,239.7339 L 131.2962,239.6817 L 132.9407,239.6034 L 134.5852,239.4729 L 136.225,239.3139 L 137.86,239.1264 L 139.4903,238.8891 L 141.1159,238.6423 L 142.7343,238.3504 L 144.3479,238.0277 L 145.9521,237.6741 L 147.5444,237.2659 L 149.1296,236.8483 L 150.7053,236.3903 L 152.2692,235.9038 L 153.8188,235.3699 L 155.3613,234.8288 L 156.8871,234.2379 L 158.3988,233.6257 L 159.8985,232.9778 L 161.3817,232.3039 L 162.8482,231.6015 L 164.2958,230.8539 L 165.7291,230.0969 L 167.1435,229.302 L 168.5364,228.4714 L 169.9223,227.6456 L 171.2773,226.7675 L 172.6133,225.8658 L 173.9351,224.9498 L 175.2356,224.0077 L 176.5052,223.0252 L 177.7581,222.0262 L 178.9992,221.0248 L 180.2119,219.9925 L 181.3913,218.9222 L 182.5517,217.833 L 183.6931,216.7367 L 184.8179,215.6332 L 185.9072,214.4918 L 186.9751,213.3361 L 188.005,212.1448 L 189.0277,210.963 L 190.0387,209.7836 L 191.0092,208.5639 L 191.9585,207.3394 L 192.8745,206.0912 L 193.762,204.824 L 194.6305,203.5544 L 195.4896,202.2919 L 196.3154,201.0081 L 197.127,199.7219 L 197.8911,198.4096 L 198.6433,197.0973 L 199.3576,195.766 L 200.0529,194.4324 L 200.7293,193.0987 L 201.389,191.7651 L 202.0297,190.429 L 202.6396,189.0811 L 203.2352,187.7404 L 203.7881,186.3759 L 204.3339,185.0232 L 204.8417,183.6563 L 205.3377,182.2942 L 205.7957,180.9202 L 206.2442,179.5533 L 206.688,178.1983 L 207.1104,176.8409 L 207.5091,175.4812 L 207.8887,174.1238 L 208.2447,172.764 L 208.5817,171.4067 L 208.8949,170.0469 L 209.1963,168.6943 L 209.4692,167.3392 L 209.7326,165.989 L 209.9675,164.6387 L 210.1882,163.2908 L 210.3923,161.95 L 210.575,160.6093 L 210.7483,159.2732 L 210.9144,157.9467 L 211.0805,156.6297 L 211.2039,155.3055 L 211.3249,153.9908 L 211.4436,152.6833 L 211.5243,151.3734 L 211.5955,150.0682 L 211.669,148.7725 L 211.7141,147.4768 L 211.7426,146.1882 L 211.7711,144.9044 L 211.7758,143.623 L 211.7711,142.3463 L 211.7497,141.0743 L 211.7212,139.8071 L 211.6714,138.5446 L 211.6192,137.2869 L 211.5456,136.034 L 211.4721,134.7857 L 211.3724,133.5423 L 211.2727,132.3012 L 211.1683,131.0672 L 211.052,129.8379 L 210.9215,128.6111 L 210.7934,127.3889 L 210.6486,126.1716 L 210.4896,124.9566 L 210.333,123.7463 L 210.1503,122.5384 L 209.9652,121.3353 L 209.7777,120.1345 L 209.5665,118.9385 L 209.3553,117.7472 L 209.1346,116.556 L 208.8973,115.3694 L 208.6576,114.1853 L 208.4084,113.0035 L 208.1427,111.8265 L 207.8793,110.6518 L 207.6016,109.4772 L 207.3097,108.3072 L 207.0178,107.1373 L 206.7165,105.9722 L 206.3961,104.8094 L 206.0781,103.6442 L 205.7506,102.4838 L 205.4065,101.3257 L 205.0601,100.1653 L 204.7065,99.0073 L 204.3387,97.854 L 203.9661,96.6959 L 203.5793,95.545 L 203.1877,94.3917 L 202.7914,93.236 L 202.3714,92.0874 L 201.949,90.9365 L 201.5266,89.7808 L 201.0923,88.6275 L 200.6391,87.479 L 200.1811,86.3257 L 199.7231,85.1676 L 199.258,84.0072 L 198.7667,82.8539 L 198.2731,81.6982 L 197.7748,80.5354 L 197.2599,79.375 L 196.7307,78.2193 L 196.1991,77.0542 L 195.6557,75.889 L 195.0909,74.7262 L 194.5261,73.5563 L 193.94,72.3911 L 193.3467,71.2236 L 192.7416,70.0513 L 192.1198,68.8814 L 191.491,67.7043 L 190.8408,66.5321 L 190.1834,65.355 L 189.5142,64.1732 L 188.8189,63.0033 L 188.1189,61.8216 L 187.4117,60.6303 L 186.676,59.4532 L 185.9285,58.2691 L 185.1739,57.0755 L 184.3932,55.8913 L 183.6029,54.7024 L 182.789,53.5159 L 181.9584,52.3317 L 181.1136,51.1452 L 180.2498,49.9587 L 179.3647,48.7769 L 178.4677,47.5856 L 177.5422,46.4133 L 176.6048,45.2292 L 175.6414,44.0593 L 174.6589,42.8894 L 173.6575,41.7194 L 172.63,40.5685 L 171.5882,39.4033 L 170.5156,38.269 L 169.424,37.13 L 168.3158,35.9933 L 167.1719,34.8874 L 166.0186,33.7697 L 164.8274,32.6924 L 163.6219,31.6079 L 162.3831,30.5614 L 161.1254,29.522 L 159.844,28.4968 L 158.534,27.512 L 157.2051,26.5295 L 155.8454,25.5922 L 154.4619,24.6857 L 153.0547,23.8077 L 151.6237,22.9676 L 150.169,22.1703 L 148.6954,21.3943 L 147.1932,20.6895 L 145.6769,19.9989 L 144.1367,19.3867 L 142.58,18.8029 L 141.0067,18.2785 L 139.4167,17.811 L 137.8126,17.398 L 136.1965,17.0634 L 134.5686,16.8024 L 132.9288,16.6624 L 131.289,16.5224 L 129.6469,16.38 L 128,16.24 Z M 128,28.2397 L 129.4232,28.362 L 130.8435,28.4844 L 132.2616,28.6055 L 133.6755,28.7685 L 135.0791,29.0422 L 136.4699,29.4072 L 137.8481,29.8289 L 139.2114,30.3093 L 140.56,30.8315 L 141.8902,31.4125 L 143.2042,32.0251 L 144.4966,32.6963 L 145.7707,33.3962 L 147.0232,34.1375 L 148.2544,34.9129 L 149.4646,35.7158 L 150.6513,36.5536 L 151.815,37.4192 L 152.9584,38.3002 L 154.0776,39.2087 L 155.1774,40.1261 L 156.2544,41.0628 L 157.3095,42.0143 L 158.3423,42.9805 L 159.3534,43.9592 L 160.3444,44.9448 L 161.312,45.9459 L 162.2633,46.9442 L 163.1931,47.9523 L 164.1017,48.9692 L 164.9936,49.9846 L 165.8642,51.009 L 166.7181,52.0322 L 167.5534,53.0588 L 168.3692,54.0901 L 169.1711,55.1163 L 169.9505,56.1526 L 170.7181,57.1808 L 171.4676,58.212 L 172.2012,59.2425 L 172.9212,60.2691 L 173.6259,61.295 L 174.3124,62.3245 L 174.9878,63.3476 L 175.6438,64.3761 L 176.2893,65.3982 L 176.9258,66.4124 L 177.5441,67.4309 L 178.1479,68.4491 L 178.7457,69.4571 L 179.3338,70.4602 L 179.903,71.4688 L 180.4629,72.4722 L 181.0151,73.4695 L 181.55,74.4708 L 182.0786,75.4651 L 182.5939,76.4595 L 183.0995,77.451 L 183.5975,78.4377 L 184.0824,79.4251 L 184.5589,80.4092 L 185.028,81.3893 L 185.4828,82.3713 L 185.9298,83.3503 L 186.3744,84.3223 L 186.8062,85.2956 L 187.2244,86.2707 L 187.6389,87.2408 L 188.0503,88.2058 L 188.4475,89.1736 L 188.8329,90.1423 L 189.2149,91.1068 L 189.5956,92.0666 L 189.9716,93.0238 L 190.3329,93.9845 L 190.6842,94.9458 L 191.0353,95.9027 L 191.3845,96.8567 L 191.721,97.8134 L 192.0477,98.7712 L 192.3711,99.7273 L 192.6888,100.6831 L 192.9964,101.6405 L 193.301,102.5968 L 193.5938,103.5556 L 193.8805,104.5147 L 194.1655,105.4728 L 194.4415,106.4327 L 194.7078,107.3945 L 194.9713,108.3563 L 195.2319,109.3183 L 195.4797,110.2835 L 195.7209,111.2502 L 195.9621,112.2169 L 196.1924,113.1865 L 196.4122,114.1587 L 196.6314,115.1317 L 196.8433,116.107 L 197.0455,117.0851 L 197.2431,118.0652 L 197.4362,119.0474 L 197.6175,120.0329 L 197.7927,121.021 L 197.9676,122.0113 L 198.1245,123.0054 L 198.2783,124.0022 L 198.4303,125.0017 L 198.569,126.0048 L 198.7,127.0112 L 198.8277,128.0208 L 198.9438,129.034 L 199.0506,130.0506 L 199.1587,131.0711 L 199.2556,132.0954 L 199.343,133.1234 L 199.4266,134.1556 L 199.5098,135.1928 L 199.5801,136.2339 L 199.6416,137.2792 L 199.6956,138.3291 L 199.7386,139.3831 L 199.7759,140.4421 L 199.7987,141.5047 L 199.8153,142.5725 L 199.8191,143.6441 L 199.8151,144.7207 L 199.7917,145.7996 L 199.7677,146.8852 L 199.7329,147.9754 L 199.6765,149.0669 L 199.6159,150.1647 L 199.5515,151.2693 L 199.4659,152.3751 L 199.3645,153.4836 L 199.2613,154.5999 L 199.144,155.7197 L 199.0032,156.8391 L 198.861,157.9669 L 198.7133,159.102 L 198.5578,160.2435 L 198.3838,161.3867 L 198.1963,162.534 L 197.9971,163.6861 L 197.7753,164.8375 L 197.5434,165.9944 L 197.2904,167.1509 L 197.025,168.3117 L 196.742,169.4738 L 196.442,170.6373 L 196.123,171.8008 L 195.7868,172.9653 L 195.432,174.1296 L 195.058,175.2932 L 194.6745,176.4627 L 194.2853,177.6414 L 193.8781,178.8204 L 193.4469,179.9949 L 192.9963,181.168 L 192.5237,182.3373 L 192.0331,183.5058 L 191.5145,184.6644 L 190.9787,185.8221 L 190.4199,186.9734 L 189.8455,188.1248 L 189.2565,189.2774 L 188.6517,190.43 L 188.0259,191.5772 L 187.373,192.7119 L 186.6999,193.8411 L 185.9952,194.9508 L 185.2715,196.0548 L 184.5258,197.149 L 183.7703,198.248 L 182.9968,199.3419 L 182.1957,200.4178 L 181.3688,201.4766 L 180.5175,202.5193 L 179.639,203.5405 L 178.7516,204.5662 L 177.8517,205.5916 L 176.9216,206.5889 L 175.9676,207.5661 L 174.9881,208.5193 L 173.9945,209.4666 L 172.9851,210.4048 L 171.953,211.321 L 170.8927,212.2024 L 169.8148,213.0677 L 168.7247,213.9276 L 167.6145,214.7644 L 166.4806,215.5688 L 165.3308,216.356 L 164.1662,217.1281 L 162.9793,217.8644 L 161.7772,218.581 L 160.563,219.2849 L 159.3295,219.9551 L 158.0827,220.6057 L 156.821,221.2311 L 155.5431,221.8239 L 154.2522,222.3925 L 152.9481,222.9333 L 151.6326,223.4509 L 150.3032,223.9323 L 148.9651,224.3959 L 147.616,224.8296 L 146.2564,225.232 L 144.887,225.6015 L 143.5115,225.9566 L 142.1266,226.2737 L 140.734,226.5571 L 139.3355,226.8139 L 137.9303,227.0324 L 136.5218,227.2386 L 135.1082,227.407 L 133.6911,227.547 L 132.2712,227.6624 L 130.8485,227.7329 L 129.4246,227.7785 L 128,227.8019 L 126.5754,227.7785 L 125.1515,227.7329 L 123.7288,227.6624 L 122.3089,227.547 L 120.8918,227.407 L 119.4782,227.2386 L 118.0697,227.0324 L 116.6645,226.8139 L 115.266,226.5571 L 113.8734,226.2737 L 112.4885,225.9566 L 111.113,225.6015 L 109.7436,225.232 L 108.384,224.8296 L 107.0349,224.3959 L 105.6968,223.9323 L 104.3674,223.4509 L 103.0519,222.9333 L 101.7478,222.3925 L 100.4569,221.8239 L 99.179,221.2311 L 97.9173,220.6057 L 96.6705,219.9551 L 95.437,219.2849 L 94.2228,218.581 L 93.0207,217.8644 L 91.8338,217.1281 L 90.6692,216.356 L 89.5194,215.5688 L 88.3855,214.7644 L 87.2753,213.9276 L 86.1852,213.0677 L 85.1073,212.2024 L 84.047,211.321 L 83.0149,210.4048 L 82.0055,209.4666 L 81.0119,208.5193 L 80.0324,207.5661 L 79.0784,206.5889 L 78.1483,205.5916 L 77.2484,204.5662 L 76.361,203.5405 L 75.4825,202.5193 L 74.6312,201.4766 L 73.8043,200.4178 L 73.0032,199.3419 L 72.2297,198.248 L 71.4742,197.149 L 70.7285,196.0548 L 70.0048,194.9508 L 69.3001,193.8411 L 68.627,192.7119 L 67.9741,191.5772 L 67.3483,190.43 L 66.7435,189.2774 L 66.1545,188.1248 L 65.5801,186.9734 L 65.0213,185.8221 L 64.4855,184.6644 L 63.9669,183.5058 L 63.4763,182.3373 L 63.0037,181.168 L 62.5531,179.9949 L 62.1219,178.8204 L 61.7147,177.6414 L 61.3255,176.4627 L 60.942,175.2932 L 60.568,174.1296 L 60.2132,172.9653 L 59.877,171.8008 L 59.558,170.6373 L 59.258,169.4738 L 58.975,168.3117 L 58.7096,167.1509 L 58.4566,165.9944 L 58.2247,164.8375 L 58.0029,163.6861 L 57.8037,162.534 L 57.6162,161.3867 L 57.4422,160.2435 L 57.2867,159.102 L 57.139,157.9669 L 56.9968,156.8391 L 56.856,155.7197 L 56.7387,154.5999 L 56.6355,153.4836 L 56.5341,152.3751 L 56.4485,151.2693 L 56.3841,150.1647 L 56.3235,149.0669 L 56.2671,147.9754 L 56.2323,146.8852 L 56.2083,145.7996 L 56.1849,144.7207 L 56.1809,143.6441 L 56.1847,142.5725 L 56.2013,141.5047 L 56.2241,140.4421 L 56.2614,139.3831 L 56.3044,138.3291 L 56.3584,137.2792 L 56.4199,136.2339 L 56.4902,135.1928 L 56.5734,134.1556 L 56.657,133.1234 L 56.7444,132.0954 L 56.8413,131.0711 L 56.9494,130.0506 L 57.0562,129.034 L 57.1723,128.0208 L 57.3,127.0112 L 57.431,126.0048 L 57.5697,125.0017 L 57.7217,124.0022 L 57.8755,123.0054 L 58.0324,122.0113 L 58.2073,121.021 L 58.3825,120.0329 L 58.5638,119.0474 L 58.7569,118.0652 L 58.9545,117.0851 L 59.1567,116.107 L 59.3686,115.1317 L 59.5878,114.1587 L 59.8076,113.1865 L 60.0379,112.2169 L 60.2791,111.2502 L 60.5203,110.2835 L 60.7681,109.3183 L 61.0287,108.3563 L 61.2922,107.3945 L 61.5585,106.4327 L 61.8345,105.4728 L 62.1195,104.5147 L 62.4062,103.5556 L 62.699,102.5968 L 63.0036,101.6405 L 63.3112,100.6831 L 63.6289,99.7273 L 63.9523,98.7712 L 64.279,97.8134 L 64.6155,96.8567 L 64.9647,95.9027 L 65.3158,94.9458 L 65.6671,93.9845 L 66.0284,93.0238 L 66.4044,92.0666 L 66.7851,91.1068 L 67.1671,90.1423 L 67.5525,89.1736 L 67.9497,88.2058 L 68.3611,87.2408 L 68.7756,86.2707 L 69.1938,85.2956 L 69.6256,84.3223 L 70.0702,83.3503 L 70.5172,82.3713 L 70.972,81.3893 L 71.4411,80.4092 L 71.9176,79.4251 L 72.4025,78.4377 L 72.9005,77.451 L 73.4061,76.4595 L 73.9214,75.4651 L 74.45,74.4708 L 74.9849,73.4695 L 75.5371,72.4722 L 76.097,71.4688 L 76.6662,70.4602 L 77.2543,69.4571 L 77.8521,68.4491 L 78.4559,67.4309 L 79.0742,66.4124 L 79.7107,65.3982 L 80.3562,64.3761 L 81.0122,63.3476 L 81.6876,62.3245 L 82.3741,61.295 L 83.0788,60.2691 L 83.7988,59.2425 L 84.5324,58.212 L 85.2819,57.1808 L 86.0495,56.1526 L 86.8289,55.1163 L 87.6308,54.0901 L 88.4466,53.0588 L 89.2819,52.0322 L 90.1358,51.009 L 91.0064,49.9846 L 91.8983,48.9692 L 92.8069,47.9523 L 93.7367,46.9442 L 94.688,45.9459 L 95.6556,44.9448 L 96.6466,43.9592 L 97.6577,42.9805 L 98.6905,42.0143 L 99.7456,41.0628 L 100.8226,40.1261 L 101.9224,39.2087 L 103.0416,38.3002 L 104.185,37.4192 L 105.3487,36.5536 L 106.5354,35.7158 L 107.7456,34.9129 L 108.9768,34.1375 L 110.2293,33.3962 L 111.5034,32.6963 L 112.7958,32.0251 L 114.1098,31.4125 L 115.44,30.8315 L 116.7886,30.3093 L 118.1519,29.8289 L 119.5301,29.4072 L 120.9209,29.0422 L 122.3245,28.7685 L 123.7384,28.6055 L 125.1565,28.4844 L 126.5768,28.362 Z" />
    <path
       id="path17"
       style="fill:#ffd166;fill-opacity:1;stroke:none;stroke-width:1.5;stroke-opacity:1"
       inkscape:label="egg face"
       d="M 126.5768,28.362 L 125.1565,28.4844 L 123.7384,28.6055 L 122.3245,28.7685 L 120.9209,29.0422 L 119.5301,29.4072 L 118.1519,29.8289 L 116.7886,30.3093 L 115.44,30.8315 L 114.1098,31.4125 L 112.7958,32.0251 L 111.5034,32.6963 L 110.2293,33.3962 L 108.9768,34.1375 L 107.7456,34.9129 L 106.5354,35.7158 L 105.3487,36.5536 L 104.185,37.4192 L 103.0416,38.3002 L 101.9224,39.2087 L 100.8226,40.1261 L 99.7456,41.0628 L 98.6905,42.0143 L 97.6577,42.9805 L 96.6466,43.9592 L 95.6556,44.9448 L 94.688,45.9459 L 93.7367,46.9442 L 92.8069,47.9523 L 91.8983,48.9692 L 91.0064,49.9846 L 90.1358,51.009 L 89.2819,52.0322 L 88.4466,53.0588 L 87.6308,54.0901 L 86.8289,55.1163 L 86.0495,56.1526 L 85.2819,57.1808 L 84.5324,58.212 L 83.7988,59.2425 L 83.0788,60.2691 L 82.3741,61.295 L 81.6876,62.3245 L 81.0122,63.3476 L 80.3562,64.3761 L 79.7107,65.3982 L 79.0742,66.4124 L 78.4559,67.4309 L 77.8521,68.4491 L 77.2543,69.4571 L 76.6662,70.4602 L 76.097,71.4688 L 75.5371,72.4722 L 74.9849,73.4695 L 74.45,74.4708 L 73.9214,75.4651 L 73.4061,76.4595 L 72.9005,77.451 L 72.4025,78.4377 L 71.9176,79.4251 L 71.4411,80.4092 L 70.972,81.3893 L 70.5172,82.3713 L 70.0702,83.3503 L 69.6256,84.3223 L 69.1938,85.2956 L 68.7756,86.2707 L 68.3611,87.2408 L 67.9497,88.2058 L 67.5525,89.1736 L 67.1671,90.1423 L 66.7851,91.1068 L 66.4044,92.0666 L 66.0284,93.0238 L 65.6671,93.9845 L 65.3158,94.9458 L 64.9647,95.9027 L 64.6155,96.8567 L 64.279,97.8134 L 63.9523,98.7712 L 63.6289,99.7273 L 63.3112,100.6831 L 63.0036,101.6405 L 62.699,102.5968 L 62.4062,103.5556 L 62.1195,104.5147 L 61.8345,105.4728 L 61.5585,106.4327 L 61.2922,107.3945 L 61.0287,108.3563 L 60.7681,109.3183 L 60.5203,110.2835 L 60.2791,111.2502 L 60.0379,112.2169 L 59.8076,113.1865 L 59.5878,114.1587 L 59.3686,115.1317 L 59.1567,116.107 L 58.9545,117.0851 L 58.7569,118.0652 L 58.5638,119.0474 L 58.3825,120.0329 L 58.2073,121.021 L 58.0324,122.0113 L 57.8755,123.0054 L 57.7217,124.0022 L 57.5697,125.0017 L 57.431,126.0048 L 57.3,127.0112 L 57.1723,128.0208 L 57.0562,129.034 L 56.9494,130.0506 L 56.8413,131.0711 L 56.7444,132.0954 L 56.657,133.1234 L 56.5734,134.1556 L 56.4902,135.1928 L 56.4199,136.2339 L 56.3584,137.2792 L 56.3044,138.3291 L 56.2614,139.3831 L 56.2241,140.4421 L 56.2013,141.5047 L 56.1847,142.5725 L 56.1809,143.6441 L 56.1849,144.7207 L 56.2083,145.7996 L 56.2323,146.8852 L 56.2671,147.9754 L 56.3235,149.0669 L 56.3841,150.1647 L 56.4485,151.2693 L 56.5341,152.3751 L 56.6355,153.4836 L 56.7387,154.5999 L 56.856,155.7197 L 56.9968,156.8391 L 57.139,157.9669 L 57.2867,159.102 L 57.4422,160.2435 L 57.6162,161.3867 L 57.8037,162.534 L 58.0029,163.6861 L 58.2247,164.8375 L 58.4566,165.9944 L 58.7096,167.1509 L 58.975,168.3117 L 59.258,169.4738 L 59.558,170.6373 L 59.877,171.8008 L 60.2132,172.9653 L 60.568,174.1296 L 60.942,175.2932 L 61.3255,176.4627 L 61.7147,177.6414 L 62.1219,178.8204 L 62.5531,179.9949 L 63.0037,181.168 L 63.4763,182.3373 L 63.9669,183.5058 L 64.4855,184.6644 L 65.0213,185.8221 L 65.5801,186.9734 L 66.1545,188.1248 L 66.7435,189.2774 L 67.3483,190.43 L 67.9741,191.5772 L 68.627,192.7119 L 69.3001,193.8411 L 70.0048,194.9508 L 70.7285,196.0548 L 71.4742,197.149 L 72.2297,198.248 L 73.0032,199.3419 L 73.8043,200.4178 L 74.6312,201.4766 L 75.4825,202.5193 L 76.361,203.5405 L 77.2484,204.5662 L 78.1483,205.5916 L 79.0784,206.5889 L 80.0324,207.5661 L 81.0119,208.5193 L 82.0055,209.4666 L 83.0149,210.4048 L 84.047,211.321 L 85.1073,212.2024 L 86.1852,213.0677 L 87.2753,213.9276 L 88.3855,214.7644 L 89.5194,215.5688 L 90.6692,216.356 L 91.8338,217.1281 L 93.0207,217.8644 L 94.2228,218.581 L 95.437,219.2849 L 96.6705,219.9551 L 97.9173,220.6057 L 99.179,221.2311 L 100.4569,221.8239 L 101.7478,222.3925 L 103.0519,222.9333 L 104.3674,223.4509 L 105.6968,223.9323 L 107.0349,224.3959 L 108.384,224.8296 L 109.7436,225.232 L 111.113,225.6015 L 112.4885,225.9566 L 113.8734,226.2737 L 115.266,226.5571 L 116.6645,226.8139 L 118.0697,227.0324 L 119.4782,227.2386 L 120.8918,227.407 L 122.3089,227.547 L 123.7288,227.6624 L 125.1515,227.7329 L 126.5754,227.7785 L 128,227.8019 L 129.4246,227.7785 L 130.8485,227.7329 L 132.2712,227.6624 L 133.6911,227.547 L 135.1082,227.407 L 136.5218,227.2386 L 137.9303,227.0324 L 139.3355,226.8139 L 140.734,226.5571 L 142.1266,226.2737 L 143.5115,225.9566 L 144.887,225.6015 L 146.2564,225.232 L 147.616,224.8296 L 148.9651,224.3959 L 150.3032,223.9323 L 151.6326,223.4509 L 152.9481,222.9333 L 154.2522,222.3925 L 155.5431,221.8239 L 156.821,221.2311 L 158.0827,220.6057 L 159.3295,219.9551 L 160.563,219.2849 L 161.7772,218.581 L 162.9793,217.8644 L 164.1662,217.1281 L 165.3308,216.356 L 166.4806,215.5688 L 167.6145,214.7644 L 168.7247,213.9276 L 169.8148,213.0677 L 170.8927,212.2024 L 171.953,211.321 L 172.9851,210.4048 L 173.9945,209.4666 L 174.9881,208.5193 L 175.9676,207.5661 L 176.9216,206.5889 L 177.8517,205.5916 L 178.7516,204.5662 L 179.639,203.5405 L 180.5175,202.5193 L 181.3688,201.4766 L 182.1957,200.4178 L 182.9968,199.3419 L 183.7703,198.248 L 184.5258,197.149 L 185.2715,196.0548 L 185.9952,194.9508 L 186.6999,193.8411 L 187.373,192.7119 L 188.0259,191.5772 L 188.6517,190.43 L 189.2565,189.2774 L 189.8455,188.1248 L 190.4199,186.9734 L 190.9787,185.8221 L 191.5145,184.6644 L 192.0331,183.5058 L 192.5237,182.3373 L 192.9963,181.168 L 193.4469,179.9949 L 193.8781,178.8204 L 194.2853,177.6414 L 194.6745,176.4627 L 195.058,175.2932 L 195.432,174.1296 L 195.7868,172.9653 L 196.123,171.8008 L 196.442,170.6373 L 196.742,169.4738 L 197.025,168.3117 L 197.2904,167.1509 L 197.5434,165.9944 L 197.7753,164.8375 L 197.9971,163.6861 L 198.1963,162.534 L 198.3838,161.3867 L 198.5578,160.2435 L 198.7133,159.102 L 198.861,157.9669 L 199.0032,156.8391 L 199.144,155.7197 L 199.2613,154.5999 L 199.3645,153.4836 L 199.4659,152.3751 L 199.5515,151.2693 L 199.6159,150.1647 L 199.6765,149.0669 L 199.7329,147.9754 L 199.7677,146.8852 L 199.7917,145.7996 L 199.8151,144.7207 L 199.8191,143.6441 L 199.8153,142.5725 L 199.7987,141.5047 L 199.7759,140.4421 L 199.7386,139.3831 L 199.6956,138.3291 L 199.6416,137.2792 L 199.5801,136.2339 L 199.5098,135.1928 L 199.4266,134.1556 L 199.343,133.1234 L 199.2556,132.0954 L 199.1587,131.0711 L 199.0506,130.0506 L 198.9438,129.034 L 198.8277,128.0208 L 198.7,127.0112 L 198.569,126.0048 L 198.4303,125.0017 L 198.2783,124.0022 L 198.1245,123.0054 L 197.9676,122.0113 L 197.7927,121.021 L 197.6175,120.0329 L 197.4362,119.0474 L 197.2431,118.0652 L 197.0455,117.0851 L 196.8433,116.107 L 196.6314,115.1317 L 196.4122,114.1587 L 196.1924,113.1865 L 195.9621,112.2169 L 195.7209,111.2502 L 195.4797,110.2835 L 195.2319,109.3183 L 194.9713,108.3563 L 194.7078,107.3945 L 194.4415,106.4327 L 194.1655,105.4728 L 193.8805,104.5147 L 193.5938,103.5556 L 193.301,102.5968 L 192.9964,101.6405 L 192.6888,100.6831 L 192.3711,99.7273 L 192.0477,98.7712 L 191.721,97.8134 L 191.3845,96.8567 L 191.0353,95.9027 L 190.6842,94.9458 L 190.3329,93.9845 L 189.9716,93.0238 L 189.5956,92.0666 L 189.2149,91.1068 L 188.8329,90.1423 L 188.4475,89.1736 L 188.0503,88.2058 L 187.6389,87.2408 L 187.2244,86.2707 L 186.8062,85.2956 L 186.3744,84.3223 L 185.9298,83.3503 L 185.4828,82.3713 L 185.028,81.3893 L 184.5589,80.4092 L 184.0824,79.4251 L 183.5975,78.4377 L 183.0995,77.451 L 182.5939,76.4595 L 182.0786,75.4651 L 181.55,74.4708 L 181.0151,73.4695 L 180.4629,72.4722 L 179.903,71.4688 L 179.3338,70.4602 L 178.7457,69.4571 L 178.1479,68.4491 L 177.5441,67.4309 L 176.9258,66.4124 L 176.2893,65.3982 L 175.6438,64.3761 L 174.9878,63.3476 L 174.3124,62.3245 L 173.6259,61.295 L 172.9212,60.2691 L 172.2012,59.2425 L 171.4676,58.212 L 170.7181,57.1808 L 169.9505,56.1526 L 169.1711,55.1163 L 168.3692,54.0901 L 167.5534,53.0588 L 166.7181,52.0322 L 165.8642,51.009 L 164.9936,49.9846 L 164.1017,48.9692 L 163.1931,47.9523 L 162.2633,46.9442 L 161.312,45.9459 L 160.3444,44.9448 L 159.3534,43.9592 L 158.3423,42.9805 L 157.3095,42.0143 L 156.2544,41.0628 L 155.1774,40.1261 L 154.0776,39.2087 L 152.9584,38.3002 L 151.815,37.4192 L 150.6513,36.5536 L 149.4646,35.7158 L 148.2544,34.9129 L 147.0232,34.1375 L 145.7707,33.3962 L 144.4966,32.6963 L 143.2042,32.0251 L 141.8902,31.4125 L 140.56,30.8315 L 139.2114,30.3093 L 137.8481,29.8289 L 136.4699,29.4072 L 135.0791,29.0422 L 133.6755,28.7685 L 132.2616,28.6055 L 130.8435,28.4844 L 129.4232,28.362 L 128,28.2397 Z M 128,188.9436 A 5.2505,5.2505 0 0,1 122.9306,184.8573 C 119.7903,171.0329 111.0725,158.4295 99.2338,150.6224 C 93.5759,146.8712 87.2449,144.1321 80.6614,142.6408 A 5.2505,5.2505 0 0,1 80.6614,132.4012 C 93.9797,129.3814 106.1945,121.2228 114.0274,110.0378 C 118.2439,104.0725 121.2977,97.2786 122.9282,90.182 A 5.2505,5.2505 0 0,1 128,86.1091 A 5.2505,5.2505 0 0,1 133.0718,90.182 C 134.7023,97.2786 137.7561,104.0725 141.9726,110.0378 C 149.8055,121.2228 162.0203,129.3814 175.3386,132.4012 A 5.2505,5.2505 0 0,1 175.3386,142.6408 C 168.7551,144.1321 162.4241,146.8712 156.7662,150.6224 C 144.9275,158.4295 136.2097,171.0329 133.0694,184.8573 A 5.2505,5.2505 0 0,1 128,188.9436 Z" />
    <path
       id="path9-5-7"
       style="color:#000000;fill:#ffb84d;stroke:none;stroke-width:1.5;stroke-linejoin:round;stroke-opacity:1;-inkscape-stroke:none"
       inkscape:label="diamond rim"
       d="M 128,188.9436 A 5.2505,5.2505 0 0,0 133.0694,184.8573 C 136.2097,171.0329 144.9275,158.4295 156.7662,150.6224 C 162.4241,146.8712 168.7551,144.1321 175.3386,142.6408 A 5.2505,5.2505 0 0,0 175.3386,132.4012 C 162.0203,129.3814 149.8055,121.2228 141.9726,110.0378 C 137.7561,104.0725 134.7023,97.2786 133.0718,90.182 A 5.2505,5.2505 0 0,0 128,86.1091 A 5.2505,5.2505 0 0,0 122.9282,90.182 C 121.2977,97.2786 118.2439,104.0725 114.0274,110.0378 C 106.1945,121.2228 93.9797,129.3814 80.6614,132.4012 A 5.2505,5.2505 0 0,0 80.6614,142.6408 C 87.2449,144.1321 93.5759,146.8712 99.2338,150.6224 C 111.0725,158.4295 119.7903,171.0329 122.9306,184.8573 A 5.2505,5.2505 0 0,0 128,188.9436 Z M 128,100.6196 C 129.3932,106.8107 132.0599,112.7414 135.7441,117.9518 C 142.626,127.7771 153.2493,134.8687 164.9439,137.5204 C 159.163,138.8299 153.6362,141.2261 148.6976,144.499 C 138.2966,151.3568 130.7187,162.3135 128,174.4608 C 125.2813,162.3135 117.7034,151.3568 107.3024,144.499 C 102.3638,141.2261 96.837,138.8299 91.0561,137.5204 C 102.7507,134.8687 113.374,127.7771 120.2559,117.9518 C 123.9401,112.7414 126.6068,106.8107 128,100.6196 Z" />
  </g>
</svg>
